<svg width="34" height="34" viewBox="0 0 34 34" fill="none" xmlns="http://www.w3.org/2000/svg">
  <path d="M5.20619 24.602C6.01364 23.9208 6.78646 23.2103 7.35781 22.6701C7.94333 22.1424 8.29591 21.7585 8.29591 21.7585L12.703 19.8922C11.0031 18.1711 9.96432 15.9279 9.96432 13.4669C9.96432 8.08009 14.9066 3.69556 20.9822 3.69556C27.0577 3.69556 32 8.08009 32 13.4669C32 18.8537 27.0577 23.2382 20.9822 23.2382C18.2072 23.2382 15.6779 22.3169 13.7371 20.8107L11.6327 24.7192C11.6327 24.7192 11.1999 25.0319 10.6049 25.5512C9.9958 26.0579 9.19465 26.7433 8.42655 27.4594C7.649 28.1657 6.87146 28.8721 6.28909 29.4025C5.71931 29.9441 5.3384 30.3043 5.3384 30.3043L2 27.3435C2 27.3435 2.40608 27.0057 3.01679 26.5004C3.61332 25.9811 4.40975 25.2916 5.20619 24.602ZM20.9822 20.4464C25.3216 20.4464 28.852 17.3154 28.852 13.4669C28.852 9.61837 25.3216 6.48736 20.9822 6.48736C16.6427 6.48736 13.1123 9.61837 13.1123 13.4669C13.1123 17.3154 16.6427 20.4464 20.9822 20.4464Z" fill="#454242"/>
</svg>
